<svg width="820" height="312" viewBox="0 0 820 312" fill="none" xmlns="http://www.w3.org/2000/svg">
  <defs>
    <linearGradient id="bg-gradient" x1="0" y1="0" x2="820" y2="312" gradientUnits="userSpaceOnUse">
      <stop offset="0%" stop-color="#0f172a" /> <!-- slate-900 -->
      <stop offset="100%" stop-color="#1e293b" /> <!-- slate-800 -->
    </linearGradient>
  </defs>

  <!-- Background -->
  <rect width="820" height="312" fill="url(#bg-gradient)" />

  <!-- Abstract Chart Background -->
  <path d="M0 250 Q 200 300 410 200 T 820 150 V 312 H 0 Z" fill="#1e40af" fill-opacity="0.2" />
  <path d="M0 280 Q 200 320 410 250 T 820 200 V 312 H 0 Z" fill="#3b82f6" fill-opacity="0.1" />

  <!-- Logo Icon (Scaled Down) -->
  <g transform="translate(60, 56) scale(0.4)">
    <rect width="512" height="512" rx="128" fill="#2563eb" />
    <path d="M100 380 L180 380 L240 280 L300 320 L412 132" stroke="white" stroke-width="48" stroke-linecap="round" stroke-linejoin="round" />
    <path d="M360 132 H412 V184" stroke="white" stroke-width="48" stroke-linecap="round" stroke-linejoin="round" />
    <circle cx="100" cy="380" r="24" fill="white" />
  </g>

  <!-- Text Content -->
  <text x="300" y="140" font-family="Arial, sans-serif" font-weight="bold" font-size="48" fill="white">Smart Stock</text>
  <text x="300" y="190" font-family="Arial, sans-serif" font-size="24" fill="#94a3b8">Your Personal Market Assistant</text>
  
  <!-- Feature Tags -->
  <g transform="translate(300, 230)">
    <rect x="0" y="0" width="100" height="32" rx="16" fill="#334155" />
    <text x="50" y="22" font-family="Arial, sans-serif" font-size="14" fill="#e2e8f0" text-anchor="middle">Real-time</text>
    
    <rect x="110" y="0" width="100" height="32" rx="16" fill="#334155" />
    <text x="160" y="22" font-family="Arial, sans-serif" font-size="14" fill="#e2e8f0" text-anchor="middle">Portfolio</text>
    
    <rect x="220" y="0" width="110" height="32" rx="16" fill="#334155" />
    <text x="275" y="22" font-family="Arial, sans-serif" font-size="14" fill="#e2e8f0" text-anchor="middle">Boss Mode</text>
  </g>
</svg>